<svg xmlns="http://www.w3.org/2000/svg" width="40" height="40" fill="none"><path fill="#FEB804" d="M21.775 16.888s9.053-14.503 9.26-14.866c.206-.362.25-1.028-.32-1.028-.568 0-14.671 14.397-14.671 14.397L6.028 21.328s-.672.413-.569.929c.104.515.554.537.76.537.206 0 10.89-.056 11.512-.075.772-.022.581 1.075.581 1.075L11.55 34.425s-2.953 4.088-2.953 4.366c0 .41.494.613.953.338.356-.213 23.387-19.729 24.403-21.07.275-.365.416-1.327-.719-1.327-1.134 0-10.168 2.63-10.168 2.63l-1.291-2.474Z"/><path fill="#FFC927" d="M20.19 15.735c-.277.381-.353 1.018.247 1.056.597.034 12.797-.056 12.797-.056s-8.715 8.01-11.353 10.4c-2.637 2.39-11.372 10.134-11.96 10.681-.574.537-1.096 1.031-1.308.962-.035-.009-.079-.193.743-1.546.75-1.235 7.95-13.3 8.231-13.757.282-.456.529-.843.67-1.056.14-.212.596-1.372-.354-1.372s-11.875.281-11.875.281 7.547-6.403 9.728-8.124C17.937 11.482 30.3.993 30.716.993c.415 0-10.244 14.356-10.525 14.74Z"/><path fill="#FFE567" d="M19.828 22.109c.563-.81 1.116-.869 1.45-.669.431.26.475.857-.069 1.578-.856 1.144-7.15 9.566-7.39 9.863-.457.562-1.128.316-.69-.5.365-.675 6.118-9.434 6.7-10.272Zm-8.944-1.644c-1.078.722-2.08-.356-1.359-1.147.722-.79 5.46-4.734 6.419-5.55.96-.815 6.56-5.687 6.993-6.037.575-.463.932.006.57.487-.36.482-4.32 4.438-6.066 6.044-1.35 1.244-5.532 5.516-6.557 6.203Z"/></svg>