<svg xmlns="http://www.w3.org/2000/svg" width="80" height="80" fill="none"><mask id="a" width="73" height="56" x="4" y="12" fill="#000" maskUnits="userSpaceOnUse"><path fill="#fff" d="M4 12h73v56H4z"/><path d="M73.052 56.611a5.11 5.11 0 0 0-3.67-1.555h-.009a5.12 5.12 0 0 0-2.887.89 5.212 5.212 0 0 0-1.915 2.372 5.333 5.333 0 0 0-.298 3.055c.066.34.165.672.296.992a5.23 5.23 0 0 0 1.125 1.717 5.144 5.144 0 0 0 3.674 1.55h.007c.513 0 1.016-.074 1.507-.226a5.218 5.218 0 0 0 2.508-1.703 5.313 5.313 0 0 0 1.155-2.836 5.33 5.33 0 0 0-1.491-4.256h-.002Zm-1.931 3.811a1.76 1.76 0 0 1-.155.658 1.752 1.752 0 0 1-.941.92 1.724 1.724 0 0 1-.652.127h-.002a1.737 1.737 0 0 1-1.225-.529 1.792 1.792 0 0 1-.505-1.252 1.82 1.82 0 0 1 .507-1.253 1.73 1.73 0 0 1 1.225-.528h.001c.232 0 .457.046.67.138a1.759 1.759 0 0 1 .945.963c.09.22.134.447.134.683 0 .024 0 .048-.002.073Zm-36.914-5.366H34.2a5.051 5.051 0 0 0-1.987.4 5.133 5.133 0 0 0-1.684 1.148 5.325 5.325 0 0 0-.732.929 5.328 5.328 0 0 0-.793 2.665c-.013.47.036.937.144 1.395a5.302 5.302 0 0 0 2.407 3.305 5.123 5.123 0 0 0 2.616.737h.044a5.076 5.076 0 0 0 1.923-.381 5.18 5.18 0 0 0 1.656-1.088 5.1 5.1 0 0 0 .649-.764 5.337 5.337 0 0 0 .95-2.827 5.37 5.37 0 0 0-.868-3.161 5.178 5.178 0 0 0-1.431-1.462 5.103 5.103 0 0 0-2.886-.896h-.002Zm1.742 5.366c-.01.23-.062.45-.154.658a1.751 1.751 0 0 1-.385.551c-.161.16-.348.282-.556.367-.21.086-.428.13-.652.13h-.004a1.744 1.744 0 0 1-1.529-.921 1.775 1.775 0 0 1-.218-.913 1.77 1.77 0 0 1 .514-1.208c.34-.348.753-.522 1.236-.52h.002a1.72 1.72 0 0 1 1.236.521 1.801 1.801 0 0 1 .512 1.26l-.002.075Zm1.738-19.176-13.291-.015c-.711 0-1.288-.518-1.288-1.153l.013-8.55c0-.636.578-1.151 1.291-1.151l13.289.017c.713 0 1.288.516 1.288 1.151l-.013 8.551c0 .636-.578 1.15-1.29 1.15Zm25.851 16.97-.09.108c-1.863 1.59-3.309 2.25-5.397 2.272a.552.552 0 0 1-.095.013c-1.953-.003-15.575-.027-15.575-.033h-1.989c.004-.073.005-.146.005-.221.006-3.482-2.766-6.31-6.189-6.313-2.43-.004-4.536 1.417-5.552 3.49l-2.625-.003a.367.367 0 0 1-.354-.28.356.356 0 0 1-.006-.163 12.83 12.83 0 0 1 1.461-3.929l-.458-.736a1.418 1.418 0 0 1-.22-.82 1.43 1.43 0 0 1 .276-.802l1.394-1.925c.133-.185.3-.328.5-.43.2-.103.412-.156.637-.154l1.12.002c1.445-1.51 2.972-2.497 4.262-3.074l.61-.241v-.656c0-.07-.026-.13-.074-.18a.235.235 0 0 0-.176-.073h-8.764a.235.235 0 0 1-.174-.075.244.244 0 0 1-.074-.177v-.966a.25.25 0 0 1 .074-.179.233.233 0 0 1 .174-.073h10.21c.068 0 .126.024.174.073.049.05.074.11.074.18v1.734a3.04 3.04 0 0 1 .416-.03h.194a7.4 7.4 0 0 1 .538-.888c.819-.963 3.016-.39 5.69.227 2.67.62 6.206.185 7.348.273 1.143.09.297 2.502-.32 2.502l-.838-.002c-.895.962-2.095 1.685-2.39 3.284-.298 1.63.004 3.53.255 4.666.031.145.085.28.162.405.076.126.169.236.282.33a1.27 1.27 0 0 0 .794.298c.223.006.478.01.757.015l.53-1.277 1.658.77-.21.516c2.037-.011 4.347-.094 5.366-.389 1.447-.417 2.779-1.626 3.713-3.798l.006-.013c.046-.11.093-.223.138-.338 1.757-4.599-.626-11.782-1.642-14.457-.252-.663-.42-1.05-.42-1.05a67.743 67.743 0 0 1-1.001-2.003.907.907 0 0 1-.171-.044c-.332-.121-1.09-.319-1.446-.276l.06.558s-5.534 1.593-7.681.824c-.056 1.018-.115 1.753-.158 1.93-.027.11-.197.23-.472.352 2.153.285 6.474 1.216 9.794 4.238 2.105 1.916-5.346 12.916-5.346 12.916l-2.007-.926S50 49.147 52.784 44.75a.889.889 0 0 0 .126-.366.814.814 0 0 0-.278-.7.79.79 0 0 0-.342-.176c-1.408-.335-3.764-.649-6.981-.48-4.082.212-5.57-2.518-4.849-5.651-.097-1.495-.458-10.247 3.978-15.076a2.862 2.862 0 0 1-1.035-.053c.666-.101 1.238-.744 1.256-.764-1.558 1.071-2.983-.245-2.983-.245 1.24.406 2.386-.306 2.386-.306-.533.044-.82-.323-.82-.323.788.004 1.43-.494 1.8-.868a3.769 3.769 0 0 1-.248-.469 2.625 2.625 0 0 1-.196-.68c-.081-.536-.02-1.215.32-2.151.682-1.884 2.762-2.848 4.742-2.28 1.38.394 2.4 1.255 2.754 2.365a2.897 2.897 0 0 1 .115 1.243 2.173 2.173 0 0 1-.04.357 3.27 3.27 0 0 0-.454-.132c-.183-.042-.39-.084-.607-.122l-.006.012c-.19.407-.048.945.035 1.388.495 1.31-.944 3.86-2.88 2.745a.23.23 0 0 1-.047-.027c-.453.797-.677 1.637-.774 2.097.1.174.194.35.28.522.402.257.67.66.805 1.17.255.954 1.164 5.524 1.618 5.727.221.099 1.02.152 2.029.183 1.007.031 2.226.04 3.28.057 0 0 1.24-.042 1.689-.462.45-.417.945-.404 1.398-.018.06.052.116.106.169.166.055-.03.112-.062.172-.09a5.26 5.26 0 0 0 .145-.138l.065-.06c.46-.43.91-.746 1.344-.95l.407-2.03c-.114.115-.233.17-.346.15-.36-.063-.525-.868-.37-1.8.154-.934.575-1.64.934-1.577.361.062.526.87.37 1.802-.068.41-.187.776-.33 1.053l-.464 2.319c.81-.314 1.548-.204 2.142.375 0 0 1.248 2.523-.006 4.32 0 0-1.28.24-1.673.366.498 1 5.403 7.59 5.237 14.71 5.474-1.07 7.391 2.622 7.493 5.203a.106.106 0 0 1-.039.086.096.096 0 0 1-.09.02 13.008 13.008 0 0 0-1.498-.28 6.05 6.05 0 0 0-1.815-.725 6.01 6.01 0 0 0-2.91.06 6.129 6.129 0 0 0-2.623 1.462 6.202 6.202 0 0 0-1.63 2.505l-.001.002Zm-40.376-1.53a.845.845 0 0 1-.239.588.802.802 0 0 1-.577.242H9.97a.826.826 0 0 1-.755-1.147.818.818 0 0 1 .753-.512h12.378a.805.805 0 0 1 .577.243.818.818 0 0 1 .176.27c.041.1.063.207.063.317Zm0-5.407a.834.834 0 0 1-.503.765.798.798 0 0 1-.313.064H6.816a.785.785 0 0 1-.313-.064.773.773 0 0 1-.264-.18.833.833 0 0 1-.239-.586.835.835 0 0 1 .237-.588.8.8 0 0 1 .266-.179.794.794 0 0 1 .313-.064h15.53a.807.807 0 0 1 .577.243.841.841 0 0 1 .239.589Zm0-5.41a.83.83 0 0 1-.063.316.822.822 0 0 1-.44.45.798.798 0 0 1-.313.063h-6.205a.797.797 0 0 1-.576-.242.825.825 0 0 1-.24-.588.827.827 0 0 1 .504-.767.789.789 0 0 1 .31-.062h6.207a.805.805 0 0 1 .753.513c.041.1.063.207.063.316Z"/></mask><path stroke="#fff" stroke-width="3" d="M73.052 56.611a5.11 5.11 0 0 0-3.67-1.555h-.009a5.12 5.12 0 0 0-2.887.89 5.212 5.212 0 0 0-1.915 2.372 5.333 5.333 0 0 0-.298 3.055c.066.34.165.672.296.992a5.23 5.23 0 0 0 1.125 1.717 5.144 5.144 0 0 0 3.674 1.55h.007c.513 0 1.016-.074 1.507-.226a5.218 5.218 0 0 0 2.508-1.703 5.313 5.313 0 0 0 1.155-2.836 5.33 5.33 0 0 0-1.491-4.256h-.002Zm-1.931 3.811a1.76 1.76 0 0 1-.155.658 1.752 1.752 0 0 1-.941.92 1.724 1.724 0 0 1-.652.127h-.002a1.737 1.737 0 0 1-1.225-.529 1.792 1.792 0 0 1-.505-1.252 1.82 1.82 0 0 1 .507-1.253 1.73 1.73 0 0 1 1.225-.528h.001c.232 0 .457.046.67.138a1.759 1.759 0 0 1 .945.963c.09.22.134.447.134.683 0 .024 0 .048-.002.073Zm-36.914-5.366H34.2a5.051 5.051 0 0 0-1.987.4 5.133 5.133 0 0 0-1.684 1.148 5.325 5.325 0 0 0-.732.929 5.328 5.328 0 0 0-.793 2.665c-.013.47.036.937.144 1.395a5.302 5.302 0 0 0 2.407 3.305 5.123 5.123 0 0 0 2.616.737h.044a5.076 5.076 0 0 0 1.923-.381 5.18 5.18 0 0 0 1.656-1.088 5.1 5.1 0 0 0 .649-.764 5.337 5.337 0 0 0 .95-2.827 5.37 5.37 0 0 0-.868-3.161 5.178 5.178 0 0 0-1.431-1.462 5.103 5.103 0 0 0-2.886-.896h-.002Zm1.742 5.366c-.01.23-.062.45-.154.658a1.751 1.751 0 0 1-.385.551c-.161.16-.348.282-.556.367-.21.086-.428.13-.652.13h-.004a1.744 1.744 0 0 1-1.529-.921 1.775 1.775 0 0 1-.218-.913 1.77 1.77 0 0 1 .514-1.208c.34-.348.753-.522 1.236-.52h.002a1.72 1.72 0 0 1 1.236.521 1.801 1.801 0 0 1 .512 1.26l-.002.075Zm1.738-19.176-13.291-.015c-.711 0-1.288-.518-1.288-1.153l.013-8.55c0-.636.578-1.151 1.291-1.151l13.289.017c.713 0 1.288.516 1.288 1.151l-.013 8.551c0 .636-.578 1.15-1.29 1.15Zm25.851 16.97-.09.108c-1.863 1.59-3.309 2.25-5.397 2.272a.552.552 0 0 1-.095.013c-1.953-.003-15.575-.027-15.575-.033h-1.989c.004-.073.005-.146.005-.221.006-3.482-2.766-6.31-6.189-6.313-2.43-.004-4.536 1.417-5.552 3.49l-2.625-.003a.367.367 0 0 1-.354-.28.356.356 0 0 1-.006-.163 12.83 12.83 0 0 1 1.461-3.929l-.458-.736a1.418 1.418 0 0 1-.22-.82 1.43 1.43 0 0 1 .276-.802l1.394-1.925c.133-.185.3-.328.5-.43.2-.103.412-.156.637-.154l1.12.002c1.445-1.51 2.972-2.497 4.262-3.074l.61-.241v-.656c0-.07-.026-.13-.074-.18a.235.235 0 0 0-.176-.073h-8.764a.235.235 0 0 1-.174-.075.244.244 0 0 1-.074-.177v-.966a.25.25 0 0 1 .074-.179.233.233 0 0 1 .174-.073h10.21c.068 0 .126.024.174.073.049.05.074.11.074.18v1.734a3.04 3.04 0 0 1 .416-.03h.194a7.4 7.4 0 0 1 .538-.888c.819-.963 3.016-.39 5.69.227 2.67.62 6.206.185 7.348.273 1.143.09.297 2.502-.32 2.502l-.838-.002c-.895.962-2.095 1.685-2.39 3.284-.298 1.63.004 3.53.255 4.666.031.145.085.28.162.405.076.126.169.236.282.33a1.27 1.27 0 0 0 .794.298c.223.006.478.01.757.015l.53-1.277 1.658.77-.21.516c2.037-.011 4.347-.094 5.366-.389 1.447-.417 2.779-1.626 3.713-3.798l.006-.013c.046-.11.093-.223.138-.338 1.757-4.599-.626-11.782-1.642-14.457-.252-.663-.42-1.05-.42-1.05a67.743 67.743 0 0 1-1.001-2.003.907.907 0 0 1-.171-.044c-.332-.121-1.09-.319-1.446-.276l.06.558s-5.534 1.593-7.681.824c-.056 1.018-.115 1.753-.158 1.93-.027.11-.197.23-.472.352 2.153.285 6.474 1.216 9.794 4.238 2.105 1.916-5.346 12.916-5.346 12.916l-2.007-.926S50 49.147 52.784 44.75a.889.889 0 0 0 .126-.366.814.814 0 0 0-.278-.7.79.79 0 0 0-.342-.176c-1.408-.335-3.764-.649-6.981-.48-4.082.212-5.57-2.518-4.849-5.651-.097-1.495-.458-10.247 3.978-15.076a2.862 2.862 0 0 1-1.035-.053c.666-.101 1.238-.744 1.256-.764-1.558 1.071-2.983-.245-2.983-.245 1.24.406 2.386-.306 2.386-.306-.533.044-.82-.323-.82-.323.788.004 1.43-.494 1.8-.868a3.769 3.769 0 0 1-.248-.469 2.625 2.625 0 0 1-.196-.68c-.081-.536-.02-1.215.32-2.151.682-1.884 2.762-2.848 4.742-2.28 1.38.394 2.4 1.255 2.754 2.365a2.897 2.897 0 0 1 .115 1.243 2.173 2.173 0 0 1-.04.357 3.27 3.27 0 0 0-.454-.132c-.183-.042-.39-.084-.607-.122l-.006.012c-.19.407-.048.945.035 1.388.495 1.31-.944 3.86-2.88 2.745a.23.23 0 0 1-.047-.027c-.453.797-.677 1.637-.774 2.097.1.174.194.35.28.522.402.257.67.66.805 1.17.255.954 1.164 5.524 1.618 5.727.221.099 1.02.152 2.029.183 1.007.031 2.226.04 3.28.057 0 0 1.24-.042 1.689-.462.45-.417.945-.404 1.398-.018.06.052.116.106.169.166.055-.03.112-.062.172-.09a5.26 5.26 0 0 0 .145-.138l.065-.06c.46-.43.91-.746 1.344-.95l.407-2.03c-.114.115-.233.17-.346.15-.36-.063-.525-.868-.37-1.8.154-.934.575-1.64.934-1.577.361.062.526.87.37 1.802-.068.41-.187.776-.33 1.053l-.464 2.319c.81-.314 1.548-.204 2.142.375 0 0 1.248 2.523-.006 4.32 0 0-1.28.24-1.673.366.498 1 5.403 7.59 5.237 14.71 5.474-1.07 7.391 2.622 7.493 5.203a.106.106 0 0 1-.039.086.096.096 0 0 1-.09.02 13.008 13.008 0 0 0-1.498-.28 6.05 6.05 0 0 0-1.815-.725 6.01 6.01 0 0 0-2.91.06 6.129 6.129 0 0 0-2.623 1.462 6.202 6.202 0 0 0-1.63 2.505l-.001.002Zm-40.376-1.53a.845.845 0 0 1-.239.588.802.802 0 0 1-.577.242H9.97a.826.826 0 0 1-.755-1.147.818.818 0 0 1 .753-.512h12.378a.805.805 0 0 1 .577.243.818.818 0 0 1 .176.27c.041.1.063.207.063.317Zm0-5.407a.834.834 0 0 1-.503.765.798.798 0 0 1-.313.064H6.816a.785.785 0 0 1-.313-.064.773.773 0 0 1-.264-.18.833.833 0 0 1-.239-.586.835.835 0 0 1 .237-.588.8.8 0 0 1 .266-.179.794.794 0 0 1 .313-.064h15.53a.807.807 0 0 1 .577.243.841.841 0 0 1 .239.589Zm0-5.41a.83.83 0 0 1-.063.316.822.822 0 0 1-.44.45.798.798 0 0 1-.313.063h-6.205a.797.797 0 0 1-.576-.242.825.825 0 0 1-.24-.588.827.827 0 0 1 .504-.767.789.789 0 0 1 .31-.062h6.207a.805.805 0 0 1 .753.513c.041.1.063.207.063.316Z" mask="url(#a)"/></svg>