<svg xmlns="http://www.w3.org/2000/svg" width="106" height="82" fill="none"><g filter="url(#a)"><path fill="#2160C4" d="M11.97 23.492h7.15a1.97 1.97 0 1 1 0 3.94h-7.15a1.97 1.97 0 1 1 0-3.94Zm7.149 14.607h5.573a1.97 1.97 0 1 1 0 3.94H19.12a1.97 1.97 0 1 1 0-3.94Z"/><path fill="#2160C4" d="M14.593 66.227h46.38a27.183 27.183 0 0 0 7.74 1.13C83.762 67.356 96 55.111 96 40.062c0-15.042-12.238-27.287-27.287-27.287-2.685 0-5.279.394-7.734 1.123H43.626c-1.09 0-1.97.88-1.97 1.97 0 1.09.88 1.97 1.97 1.97h1.221c.781 0 1.484.315 1.996.827a2.829 2.829 0 0 1-1.996 4.826h-17.53c-1.084 0-1.97.88-1.97 1.97 0 1.089.886 1.969 1.97 1.969h7.885a5.335 5.335 0 0 1 5.331 5.331 5.303 5.303 0 0 1-1.562 3.769 5.315 5.315 0 0 1-3.769 1.562h-2.961c-1.09 0-1.97.887-1.97 1.97 0 1.09.88 1.97 1.97 1.97h2.344a5.953 5.953 0 0 1 0 11.903h-7.268c-1.084 0-1.97.887-1.97 1.97 0 1.09.886 1.97 1.97 1.97h18.738c1.215 0 2.2.991 2.2 2.206 0 .61-.25 1.162-.644 1.562a2.21 2.21 0 0 1-1.556.644H14.593c-1.084 0-1.97.886-1.97 1.97 0 1.09.886 1.97 1.97 1.97Zm30.773-26.164c0-12.869 10.472-23.347 23.347-23.347 12.875 0 23.348 10.478 23.348 23.347 0 12.875-10.473 23.354-23.348 23.354-12.875 0-23.347-10.479-23.347-23.354Z"/><circle cx="68.712" cy="39.904" r="23.981" fill="#E5E5FD"/><path fill="#2160C4" d="M75.316 6h-9.317a1.97 1.97 0 1 0 0 3.94h2.689v4.806h3.94V9.94h2.689A1.97 1.97 0 1 0 75.316 6Z"/><path fill="#0DA0EB" d="M72.376 36.609 70.957 18.83c-.03-.37-.572-.37-.601 0l-1.42 17.779a3.867 3.867 0 0 0-1.916 2.164l-11.902.995c-.362.03-.362.559 0 .59l11.902.995a3.86 3.86 0 0 0 4.047 2.55c1.736-.179 3.18-1.57 3.415-3.3a3.86 3.86 0 0 0-2.106-3.994Zm-1.72 5.436a1.982 1.982 0 1 1 0-3.964 1.982 1.982 0 0 1 0 3.964Z"/></g><defs><filter id="a" width="106" height="81.356" x="0" y="0" color-interpolation-filters="sRGB" filterUnits="userSpaceOnUse"><feFlood flood-opacity="0" result="BackgroundImageFix"/><feColorMatrix in="SourceAlpha" result="hardAlpha" values="0 0 0 0 0 0 0 0 0 0 0 0 0 0 0 0 0 0 127 0"/><feOffset dy="4"/><feGaussianBlur stdDeviation="5"/><feComposite in2="hardAlpha" operator="out"/><feColorMatrix values="0 0 0 0 0 0 0 0 0 0 0 0 0 0 0 0 0 0 0.15 0"/><feBlend in2="BackgroundImageFix" result="effect1_dropShadow_1693_6877"/><feBlend in="SourceGraphic" in2="effect1_dropShadow_1693_6877" result="shape"/></filter></defs></svg>