<svg xmlns="http://www.w3.org/2000/svg" width="80" height="80" fill="none"><path fill="#fff" d="M28.79 38.5c0 .436.166.845.469 1.153l.566.576a3.936 3.936 0 0 0 2.827 1.194 3.937 3.937 0 0 0 2.83-1.194l3.984-4.062a8.632 8.632 0 0 0 5.629 2.076h.004c2.351-.002 4.564-.938 6.229-2.635a.826.826 0 0 0 0-1.153.788.788 0 0 0-1.132 0 7.102 7.102 0 0 1-5.098 2.157h-.002a7.082 7.082 0 0 1-5.09-2.15.79.79 0 0 0-1.13 0l-4.527 4.614c-.905.924-2.487.924-3.393 0l-.566-.576 9.617-9.804c.897-.914 1.749-.914 2.828-.914 1.155 0 2.594 0 3.96-1.392l2.262-2.307a.826.826 0 0 0 0-1.153.788.788 0 0 0-1.131 0l-2.262 2.307c-.898.914-1.75.914-2.83.914-1.154 0-2.593 0-3.958 1.392l-9.616 9.803a1.63 1.63 0 0 0-.47 1.154ZM23.2 24.971c.882 0 1.6-.731 1.6-1.63 0-.9-.718-1.632-1.6-1.632-.883 0-1.6.732-1.6 1.631 0 .9.717 1.631 1.6 1.631Zm7.756 2.572 2.262 2.306a.789.789 0 0 0 1.132 0 .826.826 0 0 0 0-1.153l-2.263-2.306a.789.789 0 0 0-1.131 0 .827.827 0 0 0 0 1.153ZM56.8 21.71c.882 0 1.6-.731 1.6-1.63 0-.9-.718-1.632-1.6-1.632-.882 0-1.6.732-1.6 1.631 0 .9.718 1.631 1.6 1.631Zm1.834 11.654c-1.3 1.325-1.746 3.484-2.178 5.572-.382 1.853-.778 3.77-1.741 4.752l-1.132 1.153a.827.827 0 0 0 0 1.153.79.79 0 0 0 1.132 0l1.131-1.153c1.3-1.324 1.745-3.482 2.176-5.57.383-1.854.78-3.77 1.743-4.754a.826.826 0 0 0 0-1.153.788.788 0 0 0-1.13 0Z"/><path fill="#fff" d="M63.765 33.365 50.731 20.078l2.634-2.686a.826.826 0 0 0 0-1.153.789.789 0 0 0-1.13 0l-3.2 3.262a.826.826 0 0 0 0 1.153l13.6 13.864a.79.79 0 0 0 1.13 0 .826.826 0 0 0 0-1.153Zm-18.101 6.862a.79.79 0 0 0-1.131 0 .827.827 0 0 0 0 1.154l8.484 8.65a1.656 1.656 0 0 1 0 2.307 1.583 1.583 0 0 1-2.263 0l-8.484-8.65a.788.788 0 0 0-1.132 0 .826.826 0 0 0 0 1.153l10.748 10.956a1.655 1.655 0 0 1 0 2.307 1.581 1.581 0 0 1-2.263 0l-10.181-10.38a.788.788 0 0 0-1.132 0 .826.826 0 0 0 0 1.154l9.05 9.226a1.656 1.656 0 0 1 0 2.307c-.604.616-1.657.616-2.262-.001l-1.132-1.153-7.353-7.496a.789.789 0 0 0-1.131 0 .826.826 0 0 0 0 1.153l7.353 7.497c.303.308.469.717.469 1.154 0 .435-.166.845-.469 1.153a1.58 1.58 0 0 1-2.262-.001L26.966 48.859c-2.075-2.115-2.525-4.78-2.923-7.134-.334-1.979-.65-3.848-1.877-5.1a.788.788 0 0 0-1.131 0 .826.826 0 0 0 0 1.154c.868.885 1.13 2.432 1.432 4.224.416 2.463.934 5.528 3.368 8.009L39.442 63.87a3.16 3.16 0 0 0 4.524 0 3.268 3.268 0 0 0 .878-1.672c1.173.577 2.7.333 3.648-.635a3.265 3.265 0 0 0 .877-1.673 3.16 3.16 0 0 0 3.648-.634 3.31 3.31 0 0 0 0-4.613l-.303-.31a3.174 3.174 0 0 0 1.435-.843 3.312 3.312 0 0 0 0-4.613l-8.485-8.65ZM30.965 22.763l-4.8-4.893a.788.788 0 0 0-1.13 0 .826.826 0 0 0 0 1.153l4.234 4.317-13.035 13.287a.826.826 0 0 0 0 1.153.79.79 0 0 0 1.131 0l13.6-13.864a.826.826 0 0 0 0-1.153Zm4.711 40.386c-.446.238-1.207.266-1.892-.43-.686-.7-.68-1.514-.458-1.868a.825.825 0 0 0-.172-1.075.786.786 0 0 0-1.067.058 1.581 1.581 0 0 1-2.263 0 1.657 1.657 0 0 1 0-2.307.818.818 0 0 0 .234-.576.82.82 0 0 0-.234-.577.79.79 0 0 0-1.131 0l-.566.577a1.58 1.58 0 0 1-2.262 0 1.656 1.656 0 0 1 0-2.307l.565-.576a.827.827 0 0 0 .069-1.074.79.79 0 0 0-1.035-.209c-.435.256-1.201.226-1.862-.447-.702-.716-.699-1.51-.473-1.844a.826.826 0 0 0-.204-1.134.79.79 0 0 0-1.112.208c-.647.956-.63 2.61.658 3.923.507.517 1.06.825 1.603.972a3.305 3.305 0 0 0-.278 1.335c0 .87.333 1.69.938 2.306a3.16 3.16 0 0 0 3.035.859c.062.739.37 1.46.924 2.025a3.162 3.162 0 0 0 2.933.882c.1.675.42 1.382 1.027 2.001.74.754 1.604 1.056 2.392 1.056.507 0 .982-.125 1.373-.334a.823.823 0 0 0 .337-1.1.792.792 0 0 0-1.08-.344Z"/></svg>