<svg xmlns="http://www.w3.org/2000/svg" width="29" height="28" fill="none">
  <path fill="#fff" d="M9.6 2.333h9.8A6.772 6.772 0 0 1 26.167 9.1v9.8a6.767 6.767 0 0 1-6.767 6.766H9.6A6.771 6.771 0 0 1 2.833 18.9V9.1A6.767 6.767 0 0 1 9.6 2.333Zm-.233 2.333a4.2 4.2 0 0 0-4.2 4.2v10.267c0 2.322 1.878 4.2 4.2 4.2h10.266a4.2 4.2 0 0 0 4.2-4.2V8.866c0-2.321-1.878-4.2-4.2-4.2H9.367Zm11.258 1.75a1.458 1.458 0 1 1 0 2.917 1.458 1.458 0 0 1 0-2.917ZM14.5 8.166a5.833 5.833 0 1 1 0 11.667 5.833 5.833 0 0 1 0-11.667Zm0 2.334a3.5 3.5 0 1 0 0 6.999 3.5 3.5 0 0 0 0-7Z"/>
</svg>
