<svg xmlns="http://www.w3.org/2000/svg" width="29" height="28" fill="none">
  <path fill="#fff" d="M22.667 3.5A2.333 2.333 0 0 1 25 5.833v16.334a2.333 2.333 0 0 1-2.333 2.333H6.333A2.333 2.333 0 0 1 4 22.167V5.833A2.333 2.333 0 0 1 6.333 3.5h16.334Zm-.584 18.083V15.4a3.804 3.804 0 0 0-3.803-3.803c-.992 0-2.147.606-2.707 1.516v-1.295h-3.255v9.765h3.255v-5.751c0-.899.724-1.634 1.622-1.634a1.633 1.633 0 0 1 1.633 1.634v5.751h3.255ZM8.527 9.987a1.96 1.96 0 0 0 1.96-1.96 1.967 1.967 0 0 0-1.96-1.972 1.972 1.972 0 0 0-1.972 1.972c0 1.085.887 1.96 1.972 1.96Zm1.621 11.596v-9.765H6.917v9.765h3.231Z"/>
</svg>
