<svg xmlns="http://www.w3.org/2000/svg" width="80" height="80" fill="none"><path fill="#fff" d="M17.525 44.583c-1.35 0-2.443-.432-3.28-1.295-.83-.871-1.245-2.058-1.245-3.56 0-1.519.415-2.705 1.244-3.56.83-.862 1.978-1.294 3.444-1.294.604 0 1.152.043 1.647.13a.79.79 0 0 1 .503.31.873.873 0 0 1 .2.57v.051a.533.533 0 0 1-.213.44.53.53 0 0 1-.477.104 6.628 6.628 0 0 0-1.471-.168c-1.014 0-1.785.289-2.313.867-.52.57-.78 1.42-.78 2.55 0 1.096.256 1.942.768 2.538.52.586 1.219.88 2.099.88.36 0 .716-.052 1.068-.156.067-.017.1-.064.1-.142v-2.563c0-.078-.033-.116-.1-.116h-1.571a.664.664 0 0 1-.478-.195.706.706 0 0 1-.188-.492c0-.198.063-.362.188-.492a.643.643 0 0 1 .478-.207h2.64a.68.68 0 0 1 .502.22c.143.147.214.32.214.518v3.767c0 .225-.063.427-.189.609a.9.9 0 0 1-.49.362 7.896 7.896 0 0 1-2.3.324Zm5.619-.13a.678.678 0 0 1-.502-.22.72.72 0 0 1-.214-.518v-7.974a.72.72 0 0 1 .214-.517.679.679 0 0 1 .502-.22h4.274c.193 0 .36.073.503.22a.718.718 0 0 1 .213.517.719.719 0 0 1-.716.725h-3.117c-.076 0-.113.04-.113.117v2.084c0 .078.037.116.113.116h2.903c.193 0 .352.07.478.207a.682.682 0 0 1 .201.492c0 .19-.067.354-.201.492a.637.637 0 0 1-.478.195h-2.903c-.076 0-.113.038-.113.116v2.589c0 .078.037.116.113.116h3.117c.193 0 .36.074.503.22a.676.676 0 0 1 .213.505.719.719 0 0 1-.213.518.678.678 0 0 1-.503.22h-4.274Zm7.549 0a.678.678 0 0 1-.503-.22.742.742 0 0 1-.2-.518v-7.974c0-.198.066-.37.2-.517a.678.678 0 0 1 .503-.22h.277c.477 0 .83.215 1.055.647l3.105 5.773c0 .009.004.013.013.013.008 0 .012-.004.012-.013v-5.683a.72.72 0 0 1 .214-.517.679.679 0 0 1 .503-.22h.276c.193 0 .356.073.49.22a.715.715 0 0 1 .214.517v7.974a.719.719 0 0 1-.214.518.639.639 0 0 1-.49.22h-.276c-.478 0-.83-.215-1.056-.647l-3.105-5.773c0-.009-.004-.013-.012-.013-.009 0-.013.004-.013.013v5.682a.72.72 0 0 1-.214.518.678.678 0 0 1-.502.22h-.277Zm14.808-3.365c0 2.33-1.131 3.495-3.394 3.495-2.262 0-3.393-1.165-3.393-3.495V35.74a.72.72 0 0 1 .213-.517.679.679 0 0 1 .503-.22h.352c.193 0 .36.073.503.22a.718.718 0 0 1 .213.517v5.45c0 .673.13 1.16.39 1.463.268.293.683.44 1.244.44.562 0 .972-.147 1.232-.44.268-.302.402-.79.402-1.463v-5.45a.72.72 0 0 1 .214-.517.678.678 0 0 1 .503-.22h.302c.192 0 .36.073.502.22a.715.715 0 0 1 .214.517v5.347Zm2.825 3.365a.678.678 0 0 1-.503-.22.719.719 0 0 1-.214-.518v-7.974a.72.72 0 0 1 .214-.517.678.678 0 0 1 .503-.22h.502c.193 0 .36.073.503.22a.72.72 0 0 1 .214.517v7.974a.72.72 0 0 1-.214.518.678.678 0 0 1-.503.22h-.502Zm4.154 0a.678.678 0 0 1-.502-.22.742.742 0 0 1-.201-.518v-7.974c0-.198.067-.37.2-.517a.679.679 0 0 1 .504-.22h.276c.478 0 .83.215 1.056.647l3.105 5.773c0 .009.004.013.012.013.009 0 .013-.004.013-.013v-5.683c0-.198.071-.37.214-.517a.678.678 0 0 1 .502-.22h.277a.64.64 0 0 1 .49.22.72.72 0 0 1 .214.517v7.974a.72.72 0 0 1-.214.518.639.639 0 0 1-.49.22h-.277c-.477 0-.83-.215-1.056-.647L53.5 38.033c0-.009-.004-.013-.013-.013-.008 0-.012.004-.012.013v5.682a.72.72 0 0 1-.214.518.678.678 0 0 1-.503.22h-.276Zm8.863 0a.678.678 0 0 1-.503-.22.72.72 0 0 1-.213-.518v-7.974a.72.72 0 0 1 .213-.517.679.679 0 0 1 .503-.22h4.274c.193 0 .36.073.503.22a.72.72 0 0 1 .213.517.72.72 0 0 1-.716.725H62.5c-.076 0-.113.04-.113.117v2.084c0 .078.037.116.113.116h2.903c.193 0 .352.07.478.207a.682.682 0 0 1 .2.492c0 .19-.066.354-.2.492a.637.637 0 0 1-.478.195H62.5c-.076 0-.113.038-.113.116v2.589c0 .078.037.116.113.116h3.117c.193 0 .36.074.503.22a.677.677 0 0 1 .213.505.72.72 0 0 1-.213.518.678.678 0 0 1-.503.22h-4.274Z"/><path stroke="#fff" stroke-linejoin="round" stroke-width="2" d="M28.714 14H50.62c.906 7.828 6.929 10.661 11.905 11.65v5.34h2.857-51.429 2.857v-5.34c7.117-1.776 9.595-4.443 11.905-11.65Zm-8.571 34.465c4.302 9.258 8.259 13.317 19.523 17.476 10.631-3.91 14.865-7.698 19.524-17.476h5.715-50.953 6.19Z"/></svg>