<svg xmlns="http://www.w3.org/2000/svg" width="80" height="80" fill="none"><path stroke="#fff" stroke-width="2" d="m43.327 14.81.092.118c1.298 1.678 3.44 2.263 5.386 1.471l.138-.056c1.371-.557 2.779-.453 4.057.299 1.278.753 2.07 1.944 2.282 3.433l.022.15c.301 2.114 1.869 3.712 3.943 4.02l.147.02c1.46.217 2.629 1.024 3.367 2.327.738 1.304.84 2.739.293 4.136l-.055.14c-.776 1.985-.203 4.169 1.443 5.492l.116.093c1.16.932 1.775 2.227 1.775 3.731 0 1.505-.615 2.8-1.775 3.732l-.116.094c-1.645 1.323-2.22 3.506-1.443 5.49l.055.14c.547 1.398.445 2.834-.293 4.137-.738 1.303-1.907 2.11-3.367 2.326l-.147.022c-2.074.307-3.642 1.905-3.944 4.02l-.02.15c-.213 1.488-1.005 2.68-2.283 3.432-1.278.752-2.686.856-4.057.299l-.138-.056c-1.947-.792-4.088-.207-5.386 1.471l-.092.119c-.914 1.181-2.184 1.809-3.66 1.809s-2.746-.628-3.66-1.81l-.092-.118c-1.298-1.678-3.44-2.263-5.387-1.471l-.137.056c-1.372.557-2.78.453-4.058-.3-1.278-.751-2.07-1.943-2.282-3.432l-.021-.149c-.302-2.115-1.87-3.713-3.944-4.02l-.146-.022c-1.46-.216-2.63-1.023-3.367-2.326-.738-1.303-.84-2.739-.293-4.136l.054-.14c.777-1.985.203-4.168-1.443-5.491l-.116-.094C13.616 42.984 13 41.689 13 40.185c0-1.505.616-2.8 1.775-3.732l.116-.093c1.646-1.323 2.22-3.507 1.443-5.491l-.054-.14c-.547-1.398-.445-2.833.293-4.137.738-1.303 1.906-2.11 3.367-2.326l.146-.022c2.075-.307 3.642-1.905 3.944-4.02l.021-.15c.212-1.489 1.004-2.68 2.282-3.432 1.279-.752 2.686-.855 4.058-.299l.137.056c1.947.792 4.089.207 5.387-1.471l.092-.119C36.92 13.628 38.19 13 39.667 13s2.746.628 3.66 1.81Z" clip-rule="evenodd"/><path fill="#fff" fill-rule="evenodd" d="m37.122 52.4 16.941-17.27a2.278 2.278 0 0 0 0-3.173 2.175 2.175 0 0 0-3.111 0L35.57 47.638l-7.172-7.31a2.175 2.175 0 0 0-3.111 0 2.278 2.278 0 0 0 0 3.172l8.727 8.896.04.04a3.087 3.087 0 0 0 .084.077l.042.037.044.035a3.05 3.05 0 0 0 .134.098 1.508 1.508 0 0 0 .14.087l.048.026.049.025a5.47 5.47 0 0 0 .147.067 2.581 2.581 0 0 0 .15.056l.052.016.05.014.052.014.052.012.052.01.052.01.052.009a4.647 4.647 0 0 0 .158.017 2.138 2.138 0 0 0 .473-.017l.052-.009a2.667 2.667 0 0 0 .258-.06 2.318 2.318 0 0 0 .35-.14l.048-.024a2.66 2.66 0 0 0 .322-.211l.043-.035a1.373 1.373 0 0 0 .085-.075l.042-.038.034-.034.002-.002Z" clip-rule="evenodd"/></svg>