<svg xmlns="http://www.w3.org/2000/svg" width="29" height="28" fill="none">
  <g clip-path="url(#a)">
    <path fill="#fff" fill-rule="evenodd" d="M28.5 5.451c-1.05.458-2.162.758-3.3.89a5.687 5.687 0 0 0 2.526-3.127 11.618 11.618 0 0 1-3.647 1.372A5.782 5.782 0 0 0 19.886 2.8c-3.173 0-5.744 2.531-5.744 5.656 0 .442.05.873.148 1.288A16.394 16.394 0 0 1 2.45 3.836a5.562 5.562 0 0 0-.778 2.842 5.628 5.628 0 0 0 2.556 4.707 5.8 5.8 0 0 1-2.602-.707v.07c0 2.74 1.98 5.026 4.606 5.545a5.864 5.864 0 0 1-2.593.098c.73 2.246 2.852 3.88 5.366 3.927a11.643 11.643 0 0 1-7.134 2.422c-.458 0-.916-.027-1.371-.081a16.445 16.445 0 0 0 8.806 2.54c10.566 0 16.344-8.616 16.344-16.088 0-.245-.006-.49-.017-.732A11.553 11.553 0 0 0 28.5 5.45Z" clip-rule="evenodd"/>
  </g>
  <defs>
    <clipPath id="a">
      <path fill="#fff" d="M0 0h28v28H0z" transform="translate(.5)"/>
    </clipPath>
  </defs>
</svg>
