<svg xmlns="http://www.w3.org/2000/svg" width="18" height="18" fill="none">
  <path fill="url(#a)" fill-rule="evenodd" d="M15.164 2.678A8.78 8.78 0 0 0 8.914.09C4.044.09.084 4.053.08 8.92c0 1.557.408 3.075 1.18 4.412L.008 17.91l4.684-1.226a8.806 8.806 0 0 0 4.222 1.073h.004c4.867 0 8.83-3.963 8.834-8.83a8.78 8.78 0 0 0-2.588-6.249ZM8.918 16.264A7.344 7.344 0 0 1 5.18 15.24l-.267-.157-2.78.73.743-2.707-.173-.276a7.335 7.335 0 0 1-1.125-3.907c0-4.048 3.297-7.34 7.345-7.34 1.96 0 3.806.763 5.189 2.15a7.277 7.277 0 0 1 2.147 5.194c-.005 4.043-3.297 7.336-7.34 7.336Zm4.027-5.495c-.22-.11-1.307-.645-1.506-.717-.204-.072-.348-.11-.497.11-.148.221-.568.718-.7.866-.127.149-.259.166-.48.055-.22-.11-.933-.343-1.773-1.094a6.57 6.57 0 0 1-1.226-1.528c-.127-.22-.013-.34.098-.45.097-.097.22-.258.33-.386.11-.127.149-.22.221-.369.072-.148.038-.276-.017-.386-.055-.11-.496-1.196-.679-1.638-.178-.428-.36-.373-.496-.377-.127-.009-.276-.009-.424-.009a.814.814 0 0 0-.59.276c-.204.22-.772.755-.772 1.841 0 1.087.789 2.135.9 2.283.11.149 1.556 2.376 3.771 3.33.526.23.938.366 1.26.467.53.17 1.01.145 1.392.09.424-.064 1.307-.535 1.49-1.048.182-.514.182-.96.127-1.048-.064-.102-.208-.157-.429-.268Z" clip-rule="evenodd"/>
  <defs>
    <linearGradient id="a" x1="8.881" x2="8.881" y1="17.912" y2=".09" gradientUnits="userSpaceOnUse">
      <stop stop-color="#25CF43"/>
      <stop offset="1" stop-color="#61FD7D"/>
    </linearGradient>
  </defs>
</svg>
