<svg xmlns="http://www.w3.org/2000/svg" width="634" height="104" fill="none">
  <path fill="#E0EDFF" d="M40.682 87.152c-5.312 0-10.208-.832-14.688-2.496-4.416-1.728-8.288-4.16-11.616-7.296-3.264-3.136-5.824-6.816-7.68-11.04C4.906 62.096 4.01 57.456 4.01 52.4c0-5.056.896-9.696 2.688-13.92 1.856-4.224 4.448-7.904 7.776-11.04 3.328-3.136 7.232-5.536 11.712-7.2 4.48-1.728 9.408-2.592 14.784-2.592 5.952 0 11.296.992 16.032 2.976 4.8 1.984 8.832 4.864 12.096 8.64l-9.984 9.216c-2.432-2.56-5.088-4.448-7.968-5.664-2.88-1.28-6.016-1.92-9.408-1.92-3.264 0-6.24.512-8.928 1.536-2.688 1.024-5.024 2.496-7.008 4.416-1.92 1.92-3.424 4.192-4.512 6.816-1.024 2.624-1.536 5.536-1.536 8.736 0 3.136.512 6.016 1.536 8.64 1.088 2.624 2.592 4.928 4.512 6.912a20.6 20.6 0 0 0 6.912 4.416c2.688 1.024 5.632 1.536 8.832 1.536 3.072 0 6.048-.48 8.928-1.44 2.944-1.024 5.792-2.72 8.544-5.088l8.832 11.232c-3.648 2.752-7.904 4.864-12.768 6.336-4.8 1.472-9.6 2.208-14.4 2.208Zm12.96-10.56V51.344H67.85v27.264l-14.208-2.016ZM81.24 86V34.352h14.304v14.592l-2.016-4.224c1.536-3.648 4-6.4 7.392-8.256 3.392-1.92 7.52-2.88 12.384-2.88v13.824a17.53 17.53 0 0 0-1.728-.096 13.172 13.172 0 0 0-1.632-.096c-4.096 0-7.424 1.184-9.984 3.552-2.496 2.304-3.744 5.92-3.744 10.848V86H81.24Zm69.274 0V75.92l-.96-2.208V55.664c0-3.2-.992-5.696-2.976-7.488-1.92-1.792-4.896-2.688-8.928-2.688-2.752 0-5.472.448-8.16 1.344-2.624.832-4.864 1.984-6.72 3.456l-5.376-10.464c2.816-1.984 6.208-3.52 10.176-4.608 3.968-1.088 8-1.632 12.096-1.632 7.872 0 13.984 1.856 18.336 5.568 4.352 3.712 6.528 9.504 6.528 17.376V86h-14.016Zm-15.744.768c-4.032 0-7.488-.672-10.368-2.016-2.88-1.408-5.088-3.296-6.624-5.664-1.536-2.368-2.304-5.024-2.304-7.968 0-3.072.736-5.76 2.208-8.064 1.536-2.304 3.936-4.096 7.2-5.376 3.264-1.344 7.52-2.016 12.768-2.016h13.728V64.4h-12.096c-3.52 0-5.952.576-7.296 1.728-1.28 1.152-1.92 2.592-1.92 4.32 0 1.92.736 3.456 2.208 4.608 1.536 1.088 3.616 1.632 6.24 1.632 2.496 0 4.736-.576 6.72-1.728 1.984-1.216 3.424-2.976 4.32-5.28l2.304 6.912c-1.088 3.328-3.072 5.856-5.952 7.584-2.88 1.728-6.592 2.592-11.136 2.592Zm109.458-53.184c4.096 0 7.712.832 10.848 2.496 3.2 1.6 5.696 4.096 7.488 7.488 1.856 3.328 2.784 7.616 2.784 12.864V86h-14.976V58.736c0-4.16-.864-7.232-2.592-9.216-1.728-1.984-4.16-2.976-7.296-2.976-2.176 0-4.128.512-5.856 1.536-1.728.96-3.072 2.432-4.032 4.416-.96 1.984-1.44 4.512-1.44 7.584V86H214.18V58.736c0-4.16-.864-7.232-2.592-9.216-1.664-1.984-4.064-2.976-7.2-2.976-2.176 0-4.128.512-5.856 1.536-1.728.96-3.072 2.432-4.032 4.416-.96 1.984-1.44 4.512-1.44 7.584V86h-14.976V34.352h14.304v14.112l-2.688-4.128c1.792-3.52 4.32-6.176 7.584-7.968 3.328-1.856 7.104-2.784 11.328-2.784 4.736 0 8.864 1.216 12.384 3.648 3.584 2.368 5.952 6.016 7.104 10.944l-5.28-1.44c1.728-4.032 4.48-7.232 8.256-9.6 3.84-2.368 8.224-3.552 13.152-3.552ZM325.907 18.8h15.552V86h-15.552V18.8ZM295.379 86h-15.552V18.8h15.552V86Zm31.68-27.552h-32.832V45.296h32.832v13.152Zm54.876 28.32c-5.888 0-11.072-1.152-15.552-3.456-4.416-2.304-7.84-5.44-10.272-9.408-2.432-4.032-3.648-8.608-3.648-13.728 0-5.184 1.184-9.76 3.552-13.728 2.432-4.032 5.728-7.168 9.888-9.408 4.16-2.304 8.864-3.456 14.112-3.456 5.056 0 9.6 1.088 13.632 3.264 4.096 2.112 7.328 5.184 9.696 9.216 2.368 3.968 3.552 8.736 3.552 14.304 0 .576-.032 1.248-.096 2.016a225.17 225.17 0 0 1-.192 2.016h-41.952v-8.736h34.08l-5.76 2.592c0-2.688-.544-5.024-1.632-7.008-1.088-1.984-2.592-3.52-4.512-4.608-1.92-1.152-4.16-1.728-6.72-1.728-2.56 0-4.832.576-6.816 1.728-1.92 1.088-3.424 2.656-4.512 4.704-1.088 1.984-1.632 4.352-1.632 7.104v2.304c0 2.816.608 5.312 1.824 7.488 1.28 2.112 3.04 3.744 5.28 4.896 2.304 1.088 4.992 1.632 8.064 1.632 2.752 0 5.152-.416 7.2-1.248 2.112-.832 4.032-2.08 5.76-3.744l7.968 8.64c-2.368 2.688-5.344 4.768-8.928 6.24-3.584 1.408-7.712 2.112-12.384 2.112ZM447.139 86V75.92l-.96-2.208V55.664c0-3.2-.992-5.696-2.976-7.488-1.92-1.792-4.896-2.688-8.928-2.688-2.752 0-5.472.448-8.16 1.344-2.624.832-4.864 1.984-6.72 3.456l-5.376-10.464c2.816-1.984 6.208-3.52 10.176-4.608 3.968-1.088 8-1.632 12.096-1.632 7.872 0 13.984 1.856 18.336 5.568 4.352 3.712 6.528 9.504 6.528 17.376V86h-14.016Zm-15.744.768c-4.032 0-7.488-.672-10.368-2.016-2.88-1.408-5.088-3.296-6.624-5.664-1.536-2.368-2.304-5.024-2.304-7.968 0-3.072.736-5.76 2.208-8.064 1.536-2.304 3.936-4.096 7.2-5.376 3.264-1.344 7.52-2.016 12.768-2.016h13.728V64.4h-12.096c-3.52 0-5.952.576-7.296 1.728-1.28 1.152-1.92 2.592-1.92 4.32 0 1.92.736 3.456 2.208 4.608 1.536 1.088 3.616 1.632 6.24 1.632 2.496 0 4.736-.576 6.72-1.728 1.984-1.216 3.424-2.976 4.32-5.28l2.304 6.912c-1.088 3.328-3.072 5.856-5.952 7.584-2.88 1.728-6.592 2.592-11.136 2.592ZM474.709 86V14.768h14.976V86h-14.976Zm53.839.768c-6.08 0-10.816-1.536-14.208-4.608-3.392-3.136-5.088-7.776-5.088-13.92V22.928h14.976v45.12c0 2.176.576 3.872 1.728 5.088 1.152 1.152 2.72 1.728 4.704 1.728 2.368 0 4.384-.64 6.048-1.92l4.032 10.56c-1.536 1.088-3.392 1.92-5.568 2.496-2.112.512-4.32.768-6.624.768Zm-27.264-39.744v-11.52h35.808v11.52h-35.808Zm79.254-13.44c4.096 0 7.744.832 10.944 2.496 3.264 1.6 5.824 4.096 7.68 7.488 1.856 3.328 2.784 7.616 2.784 12.864V86H586.97V58.736c0-4.16-.928-7.232-2.784-9.216-1.792-1.984-4.352-2.976-7.68-2.976-2.368 0-4.512.512-6.432 1.536-1.856.96-3.328 2.464-4.416 4.512-1.024 2.048-1.536 4.672-1.536 7.872V86h-14.976V14.768h14.976v33.888l-3.36-4.32c1.856-3.456 4.512-6.112 7.968-7.968 3.456-1.856 7.392-2.784 11.808-2.784Zm40.647 53.184c-2.56 0-4.768-.864-6.624-2.592-1.792-1.792-2.688-4.064-2.688-6.816s.896-4.96 2.688-6.624c1.856-1.728 4.064-2.592 6.624-2.592 2.624 0 4.832.864 6.624 2.592 1.792 1.664 2.688 3.872 2.688 6.624s-.896 5.024-2.688 6.816c-1.792 1.728-4 2.592-6.624 2.592Z"/>
</svg>
