<svg xmlns="http://www.w3.org/2000/svg" width="50" height="50" fill="none"><circle cx="25" cy="25" r="25" fill="url(#a)"/><path fill="#fff" d="M25.91 39.48c-2.213 0-4.253-.347-6.12-1.04a14.893 14.893 0 0 1-4.84-3.04 14.273 14.273 0 0 1-3.2-4.6c-.746-1.76-1.12-3.693-1.12-5.8 0-2.107.374-4.04 1.12-5.8a13.982 13.982 0 0 1 3.24-4.6c1.387-1.307 3.014-2.307 4.88-3 1.867-.72 3.92-1.08 6.16-1.08 2.48 0 4.707.413 6.68 1.24 2 .827 3.68 2.027 5.04 3.6l-4.16 3.84c-1.013-1.067-2.12-1.853-3.32-2.36-1.2-.533-2.506-.8-3.92-.8-1.36 0-2.6.213-3.72.64a8.497 8.497 0 0 0-2.92 1.84c-.8.8-1.426 1.747-1.88 2.84-.426 1.093-.64 2.307-.64 3.64 0 1.307.214 2.507.64 3.6a9.124 9.124 0 0 0 1.88 2.88 8.584 8.584 0 0 0 2.88 1.84c1.12.427 2.347.64 3.68.64 1.28 0 2.52-.2 3.72-.6 1.227-.427 2.414-1.133 3.56-2.12l3.68 4.68c-1.52 1.147-3.293 2.027-5.32 2.64-2 .613-4 .92-6 .92Zm5.4-4.4V24.56h5.92v11.36l-5.92-.84Z"/><defs><linearGradient id="a" x1="0" x2="50" y1="25" y2="25" gradientUnits="userSpaceOnUse"><stop offset=".309" stop-color="#004AAD"/><stop offset="1" stop-color="#2EEB31"/></linearGradient></defs></svg>